<svg xmlns="http://www.w3.org/2000/svg" viewBox="0 0 140 140">
  <path fill="#017bfe" d="M70.5 84.5c-.2373-1.291.096-2.291 1-3 21.8405.3271 32.341-10.3395 31.5-32-2.5-10.5-9-17-19.5-19.5-24.6667-.3333-49.3333-.6667-74-1-.77972-1.073-.61305-2.2396.5-3.5C16.1349 18.364 22.6349 11.5307 29.5 5l6-3c19-.66667 38-.66667 57 0 32.848 7.87547 47.348 28.7088 43.5 62.5-1.027 4.1079-2.36 8.1079-4 12-5.389 7.4915-11.222 14.4915-17.5 21 7.198 12.561 14.532 25.061 22 37.5-.145.772-.478 1.439-1 2-9.333.667-18.667.667-28 0l-6-3c-10.5578-16.384-20.8911-32.884-31-49.5Z"/>
  <path fill="#0f172a" d="M71.5 81.5c-.904.709-1.2373 1.709-1 3-6.5003-1.3148-13.0003-1.3148-19.5 0-2.9442 16.274-5.6109 32.608-8 49-.5 1.167-1.3333 2-2.5 2.5-8.5921 2.14-17.0921 1.973-25.5-.5 1.6773-17.058 3.6773-34.058 6-51-6.0758-.9764-12.24243-1.3097-18.5-1-.15668-1.3734.00999-2.7068.5-4 10.3693-10.7008 20.3693-21.7008 30-33 2.754-3.2621 5.9206-5.9288 9.5-8 1.5293.0288 2.696.6955 3.5 2 8.3287 13.8168 16.8287 27.4835 25.5 41Z"/>
</svg>